# xmcd
#
# Track frame offsets:
#	150
#	13615
#	26427
#	41692
#	58830
#	68917
#	80325
#	101537
#	113282
#	125252
#	135062
#	147140
#	161310
#	177975
#	190247
#	198980
#	209017
#	222145
#	236587
#	252225
#
# Disc length: 3550
#
# Revision: 2
# Processed by: cddbd v1.5.1PL0 Copyright (c) Steve Scherf et al.
# Submitted via: CDex 1.50
# Normalized: r0:DSETVAR1,TSWAP
#
DISCID=0b0ddc14
DTITLE=Various Artist - Country Sweet 'N' Sentimental - Disk 3
DYEAR=1900
DGENRE=Country
TTITLE0=Dolly Parton - Send Me The Pillow You Dream On
TTITLE1=Reba McEntire - Only You (And You Alone)
TTITLE2=Kathy Mattea - 18 Wheels and A Dozen Roses
TTITLE3=Tanya Tucker - Love Me Like You Used To
TTITLE4=Patly Cline - I Love You So Much It Hurts
TTITLE5=Patti Page - Please Help Me I am Falling (In Love With You)
TTITLE6=K. T. Oslin - Hold Me
TTITLE7=Loretta Lynn - My Shoes Keep Walking Back To You
TTITLE8=Dottie West - You Don't Know Me
TTITLE9=Jeannie C. Riley - Wish You Were Here
TTITLE10=Conway Twitty - By The Time I Get To Phoenix
TTITLE11=Ferlin Husky - Just For Old Time Sake
TTITLE12=Jimmy Dean, Dottie West, and The Jordanaires - For The Good Times
TTITLE13=Jerry Lee Lewis - She Even Woke Me Up To Say Goodbye
TTITLE14=Charlie Pride - Guess Things Happen That Way
TTITLE15=Don Gibson and The Jordanaires - Funny, Familar, Forgotten Feelings
TTITLE16=Crystal Gayle - The Wayward Wind
TTITLE17=Red Foley - That Lucky Old Sun (Just Rolls Around Heaven All Day)
TTITLE18=Skeeter Davis - Both Sides Now
TTITLE19=Webb Pierce - Gotta To Travel On
EXTD=
EXTT0=
EXTT1=
EXTT2=
EXTT3=
EXTT4=
EXTT5=
EXTT6=
EXTT7=
EXTT8=
EXTT9=
EXTT10=
EXTT11=
EXTT12=
EXTT13=
EXTT14=
EXTT15=
EXTT16=
EXTT17=
EXTT18=
EXTT19=
PLAYORDER=
